<svg width="147" height="52" viewBox="0 0 147 52" fill="none" xmlns="http://www.w3.org/2000/svg">
<path fill-rule="evenodd" clip-rule="evenodd" d="M131.71 29.416C123.065 29.416 116.581 23.3622 116.581 14.708C116.581 6.05372 123.065 0 131.71 0C140.355 0 146.797 6.05372 146.797 14.708C146.797 23.3622 140.355 29.416 131.71 29.416ZM131.71 22.9359C127.006 22.9359 123.997 19.3122 123.997 14.708C123.997 10.0611 127.006 6.48004 131.71 6.48004C136.372 6.48004 139.381 10.0611 139.381 14.708C139.381 19.3122 136.372 22.9359 131.71 22.9359ZM100.154 29.4585C91.7086 29.4585 84.8334 23.7803 84.8334 14.7292C84.8334 5.67823 91.7086 0 100.154 0C106.477 0 110.297 3.37278 112.249 6.91634C110.475 7.84602 109.283 8.47028 108.675 8.78913C107.214 9.55464 105.739 9.2023 104.514 8.15144C103.377 7.17637 101.882 6.48941 100.154 6.48941C95.5281 6.48941 92.2603 10.0757 92.2603 14.7292C92.2603 19.3828 95.5281 22.9691 100.154 22.9691C102.234 22.9691 104.355 22.1152 105.374 21.2613V18.788C104.133 18.788 102.952 18.788 101.833 18.788C100.154 18.788 99.0081 17.8102 99.0081 16.4577C99.0081 15.556 99.0081 14.2683 99.0081 12.5946C104.495 12.5946 107.948 12.5946 109.37 12.5946C111.502 12.5946 112.674 13.8144 112.674 15.6205C112.674 18.2718 112.674 19.3355 112.674 21.7686C112.674 24.2016 111.554 25.1681 110.141 26.2278C107.451 28.2455 104.145 29.4585 100.154 29.4585ZM82.1908 28.9462C73.296 28.9462 67.8794 28.9462 65.9412 28.9462C63.0338 28.9462 61.438 27.2823 61.438 24.6467C61.438 22.8896 61.438 14.8305 61.438 0.469628H82.1908C82.1908 0.952418 82.1908 1.95119 82.1908 3.46595C82.1908 5.73809 80.9289 6.87365 78.1203 6.87365C76.2479 6.87365 73.1203 6.87365 68.7375 6.87365V11.3138H80.1312C80.1312 11.944 80.1312 13.0754 80.1312 14.7079C80.1312 17.1566 79.4983 17.7178 77.2148 17.7178C75.6925 17.7178 72.8667 17.7178 68.7375 17.7178V22.5421H82.1908L82.1908 28.9462Z" fill="#228BE6"/>
<path fill-rule="evenodd" clip-rule="evenodd" d="M66.5024 47.6516C64.529 47.6516 62.6261 46.9898 61.428 45.8791L62.7201 43.7757C63.5423 44.5556 65.2338 45.3355 66.6433 45.3355C67.9354 45.3355 68.5462 44.8156 68.5462 44.1066C68.5462 42.2159 61.8039 43.7521 61.8039 39.2617C61.8039 37.3475 63.4718 35.6695 66.4554 35.6695C68.3818 35.6695 69.9088 36.3312 71.0364 37.2293L69.8383 39.2854C69.157 38.5527 67.8649 37.9619 66.4789 37.9619C65.3982 37.9619 64.6934 38.4582 64.6934 39.0963C64.6934 40.7979 71.4123 39.3799 71.4123 43.9884C71.4123 46.0681 69.6504 47.6516 66.5024 47.6516ZM73.2213 51.8346L73.6676 49.1405C73.926 49.2586 74.3254 49.3295 74.6073 49.3295C75.3826 49.3295 75.8994 49.1168 76.1813 48.5024L76.6042 47.5334L71.9996 35.9531H75.1946L78.1547 43.8939L81.1148 35.9531H84.3332L79.0004 49.235C78.1547 51.3856 76.6512 51.9528 74.7013 52.0001C74.3489 52.0001 73.5971 51.9292 73.2213 51.8346ZM89.76 47.6516C87.7867 47.6516 85.8838 46.9898 84.6856 45.8791L85.9777 43.7757C86.8 44.5556 88.4914 45.3355 89.901 45.3355C91.1931 45.3355 91.8039 44.8156 91.8039 44.1066C91.8039 42.2159 85.0615 43.7521 85.0615 39.2617C85.0615 37.3475 86.7295 35.6695 89.713 35.6695C91.6394 35.6695 93.1664 36.3312 94.2941 37.2293L93.096 39.2854C92.4147 38.5527 91.1226 37.9619 89.7365 37.9619C88.6559 37.9619 87.9511 38.4582 87.9511 39.0963C87.9511 40.7979 94.67 39.3799 94.67 43.9884C94.67 46.0681 92.908 47.6516 89.76 47.6516ZM100.684 47.6516C98.5932 47.6516 97.4656 46.5644 97.4656 44.532V38.5764H95.5862V35.9531H97.4656V32.8335H100.473V35.9531H102.775V38.5764H100.473V43.7284C100.473 44.4374 100.849 44.981 101.506 44.981C101.953 44.981 102.376 44.8156 102.54 44.6501L103.174 46.9189C102.728 47.3207 101.929 47.6516 100.684 47.6516ZM110.152 47.6516C106.698 47.6516 104.09 45.3119 104.09 41.6487C104.09 38.34 106.51 35.6695 109.964 35.6695C113.347 35.6695 115.649 38.2219 115.649 41.9559V42.6177H107.215C107.403 44.0593 108.554 45.2646 110.48 45.2646C111.444 45.2646 112.783 44.8392 113.511 44.1302L114.827 46.0681C113.699 47.108 111.914 47.6516 110.152 47.6516ZM112.759 40.5852C112.689 39.4981 111.937 38.0565 109.964 38.0565C108.108 38.0565 107.309 39.4508 107.168 40.5852H112.759ZM134.889 47.368H131.882V40.1598C131.882 39.0963 131.412 38.3401 130.191 38.3401C129.134 38.3401 128.264 39.049 127.842 39.6635V47.368H124.834V40.1598C124.834 39.0963 124.365 38.3401 123.143 38.3401C122.109 38.3401 121.24 39.049 120.794 39.6871V47.368H117.81V35.9531H120.794V37.442C121.264 36.7566 122.767 35.6695 124.506 35.6695C126.174 35.6695 127.231 36.4494 127.654 37.7492C128.311 36.7094 129.815 35.6695 131.553 35.6695C133.644 35.6695 134.889 36.7803 134.889 39.1199V47.368ZM141.914 47.6516C139.94 47.6516 138.037 46.9898 136.839 45.8791L138.131 43.7757C138.953 44.5556 140.645 45.3355 142.055 45.3355C143.347 45.3355 143.957 44.8156 143.957 44.1066C143.957 42.2159 137.215 43.7521 137.215 39.2617C137.215 37.3475 138.883 35.6695 141.867 35.6695C143.793 35.6695 145.32 36.3312 146.448 37.2293L145.25 39.2854C144.568 38.5527 143.276 37.9619 141.89 37.9619C140.809 37.9619 140.105 38.4582 140.105 39.0963C140.105 40.7979 146.824 39.3799 146.824 43.9884C146.824 46.0681 145.062 47.6516 141.914 47.6516Z" fill="#CED4DA"/>
<path d="M1.74497 35.4504C0.558415 32.379 -0.077241 29.0089 0.00751317 25.5109C0.34653 11.8175 11.4917 0.726208 25.0524 0.512915C39.2911 0.299621 50.86 11.8601 50.86 26.1081C50.86 33.2748 47.936 39.7589 43.2321 44.4087C38.2316 48.5039 33.3583 48.3333 30.3919 46.499C27.4255 44.6647 25.0524 41.6786 25.0524 36.4742C25.0524 30.4593 30.0529 26.3214 32.2565 25.5536C33.0616 25.2976 34.0363 24.999 34.7567 24.9137C36.028 24.743 36.8332 24.7004 37.6384 24.7004C38.4435 24.7004 39.5453 24.4871 39.7572 23.9752C39.7996 23.8046 39.9267 23.6339 40.0115 23.4206C40.0538 23.2927 40.0115 23.25 39.842 23.2073C39.5029 23.1647 38.8249 23.122 37.6384 23.122C37.0875 23.122 35.9856 23.122 34.4177 23.1647C36.0704 23.0794 37.2146 22.994 37.8926 22.9514C38.6978 22.8661 39.2487 22.8661 40.52 22.6954C40.52 22.6954 40.6047 22.6954 40.6895 22.6528C40.7319 22.6528 40.7319 22.6528 40.7743 22.6528C41.4099 22.5248 41.2404 21.9702 41.6218 21.4157C41.9184 21.0317 41.8761 20.5198 41.1133 20.4345C38.6978 20.1359 37.4688 19.9226 36.5365 19.2827C36.4094 19.1974 36.1975 19.0694 35.9009 18.8562C35.6466 18.6429 35.5619 18.131 35.4771 17.6617C35.4347 17.5337 35.4347 17.4484 35.3076 17.3631C34.7567 16.9365 32.8497 15.9554 31.1547 15.7421C31.4513 14.8889 31.9598 14.1637 33.0193 13.2679C28.3578 13.2679 24.4167 14.6756 21.4503 16.126C18.7806 17.4058 15.8565 19.624 13.441 21.8849C13.9496 21.8423 14.4157 21.7996 14.8819 21.7569C11.4917 24.6577 9.33047 26.62 6.36407 29.5208C6.78785 29.4782 7.25399 29.4355 7.76252 29.3928L1.74497 35.4504ZM32.2988 17.8323C32.8921 17.8323 33.1888 18.2163 34.2058 18.6855C33.0616 18.7282 32.5107 18.7282 31.7056 18.5149C31.6208 18.0456 31.7479 17.8323 32.2988 17.8323Z" fill="#CED4DA"/>
</svg>
