<svg width="86" height="52" viewBox="0 0 86 52" fill="none" xmlns="http://www.w3.org/2000/svg">
<path fill-rule="evenodd" clip-rule="evenodd" d="M38.726 29.4585C30.2806 29.4585 23.4054 23.7803 23.4054 14.7292C23.4054 5.67823 30.2806 0 38.726 0C45.0495 0 48.869 3.37278 50.8212 6.91634C49.0468 7.84602 47.8554 8.47028 47.2468 8.78913C45.7858 9.55464 44.3106 9.2023 43.0857 8.15144C41.9491 7.17637 40.4541 6.48941 38.726 6.48941C34.1001 6.48941 30.8323 10.0757 30.8323 14.7292C30.8323 19.3828 34.1001 22.9691 38.726 22.9691C40.8055 22.9691 42.9275 22.1152 43.946 21.2613V18.788C42.7046 18.788 41.5242 18.788 40.4049 18.788C38.726 18.788 37.5801 17.8102 37.5801 16.4577C37.5801 15.556 37.5801 14.2683 37.5801 12.5946C43.0666 12.5946 46.5205 12.5946 47.9419 12.5946C50.074 12.5946 51.2456 13.8144 51.2456 15.6205C51.2456 18.2718 51.2456 19.3355 51.2456 21.7686C51.2456 24.2016 50.1264 25.1681 48.7133 26.2278C46.0228 28.2455 42.7172 29.4585 38.726 29.4585ZM20.7629 28.9462C11.868 28.9462 6.45143 28.9462 4.51319 28.9462C1.60583 28.9462 0.0100098 27.2823 0.0100098 24.6467C0.0100098 22.8896 0.0100098 14.8305 0.0100098 0.469628H20.7629C20.7628 0.952418 20.7628 1.95119 20.7628 3.46595C20.7628 5.73809 19.5009 6.87365 16.6923 6.87365C14.8199 6.87365 11.6923 6.87365 7.30957 6.87365V11.3138H18.7032C18.7032 11.944 18.7032 13.0754 18.7032 14.7079C18.7032 17.1566 18.0703 17.7178 15.7868 17.7178C14.2645 17.7178 11.4387 17.7178 7.30957 17.7178V22.5421H20.7628L20.7629 28.9462Z" fill="#228BE6"/>
<path d="M56.6013 20.7154C55.9014 18.8944 55.5265 16.8964 55.5765 14.8225C55.7764 6.70396 62.3505 0.128179 70.3493 0.00172219C78.748 -0.124735 85.572 6.72925 85.572 15.1766C85.572 19.4256 83.8473 23.2699 81.0727 26.0266C78.1231 28.4546 75.2485 28.3534 73.4988 27.2659C71.7491 26.1784 70.3493 24.408 70.3493 21.3224C70.3493 17.7563 73.2988 15.3031 74.5986 14.8478C75.0736 14.6961 75.6485 14.519 76.0734 14.4684C76.8233 14.3673 77.2982 14.342 77.7732 14.342C78.2481 14.342 78.898 14.2155 79.023 13.912C79.048 13.8109 79.123 13.7097 79.173 13.5832C79.198 13.5074 79.173 13.4821 79.073 13.4568C78.873 13.4315 78.4731 13.4062 77.7732 13.4062C77.4482 13.4062 76.7983 13.4062 75.8735 13.4315C76.8483 13.3809 77.5232 13.3303 77.9232 13.305C78.3981 13.2544 78.723 13.2544 79.4729 13.1533C79.4729 13.1533 79.5229 13.1533 79.5729 13.128C79.5979 13.128 79.5979 13.128 79.6229 13.128C79.9978 13.0521 79.8979 12.7233 80.1228 12.3945C80.2978 12.1669 80.2728 11.8634 79.8229 11.8128C78.3981 11.6358 77.6732 11.5093 77.1233 11.13C77.0483 11.0794 76.9233 11.0035 76.7483 10.877C76.5983 10.7506 76.5484 10.4471 76.4984 10.1689C76.4734 10.093 76.4734 10.0424 76.3984 9.99185C76.0734 9.73893 74.9486 9.15723 73.9487 9.03077C74.1237 8.52494 74.4237 8.09499 75.0486 7.56387C72.299 7.56387 69.9743 8.39849 68.2246 9.2584C66.6498 10.0171 64.9251 11.3323 63.5003 12.6727C63.8002 12.6475 64.0752 12.6222 64.3502 12.5969C62.3505 14.3167 61.0756 15.4801 59.3259 17.1999C59.5759 17.1746 59.8508 17.1493 60.1508 17.124L56.6013 20.7154ZM74.6236 10.2701C74.9736 10.2701 75.1486 10.4977 75.7485 10.7759C75.0736 10.8012 74.7486 10.8012 74.2737 10.6747C74.2237 10.3965 74.2987 10.2701 74.6236 10.2701Z" fill="#228BE6"/>
<path fill-rule="evenodd" clip-rule="evenodd" d="M5.0744 47.6514C3.10102 47.6514 1.19812 46.9897 0 45.8789L1.29209 43.7756C2.11433 44.5555 3.8058 45.3354 5.21535 45.3354C6.50744 45.3354 7.11825 44.8154 7.11825 44.1064C7.11825 42.2158 0.375881 43.7519 0.375881 39.2616C0.375881 37.3473 2.04385 35.6694 5.02741 35.6694C6.9538 35.6694 8.48082 36.3311 9.60846 37.2292L8.41034 39.2853C7.72906 38.5526 6.43697 37.9618 5.0509 37.9618C3.97025 37.9618 3.26547 38.4581 3.26547 39.0962C3.26547 40.7978 9.98435 39.3798 9.98435 43.9883C9.98435 46.068 8.2224 47.6514 5.0744 47.6514ZM11.7933 51.8345L12.2396 49.1403C12.4981 49.2585 12.8974 49.3294 13.1793 49.3294C13.9546 49.3294 14.4714 49.1167 14.7533 48.5022L15.1762 47.5333L10.5717 35.953H13.7667L16.7267 43.8937L19.6868 35.953H22.9053L17.5725 49.2349C16.7267 51.3855 15.2232 51.9527 13.2733 52C12.9209 52 12.1692 51.9291 11.7933 51.8345ZM28.3321 47.6514C26.3587 47.6514 24.4558 46.9897 23.2577 45.8789L24.5497 43.7756C25.372 44.5555 27.0635 45.3354 28.473 45.3354C29.7651 45.3354 30.3759 44.8154 30.3759 44.1064C30.3759 42.2158 23.6335 43.7519 23.6335 39.2616C23.6335 37.3473 25.3015 35.6694 28.2851 35.6694C30.2115 35.6694 31.7385 36.3311 32.8661 37.2292L31.668 39.2853C30.9867 38.5526 29.6946 37.9618 28.3086 37.9618C27.2279 37.9618 26.5231 38.4581 26.5231 39.0962C26.5231 40.7978 33.242 39.3798 33.242 43.9883C33.242 46.068 31.4801 47.6514 28.3321 47.6514ZM39.2561 47.6514C37.1653 47.6514 36.0376 46.5643 36.0376 44.5318V38.5763H34.1582V35.953H36.0376V32.8334H39.0447V35.953H41.3469V38.5763H39.0447V43.7283C39.0447 44.4373 39.4205 44.9809 40.0783 44.9809C40.5247 44.9809 40.9476 44.8154 41.112 44.65L41.7463 46.9188C41.3 47.3206 40.5012 47.6514 39.2561 47.6514ZM48.7236 47.6514C45.2702 47.6514 42.6625 45.3117 42.6625 41.6486C42.6625 38.3399 45.0823 35.6694 48.5357 35.6694C51.9186 35.6694 54.2209 38.2218 54.2209 41.9558V42.6176H45.787C45.975 44.0592 47.1261 45.2645 49.0525 45.2645C50.0157 45.2645 51.3548 44.8391 52.083 44.1301L53.3986 46.068C52.271 47.1079 50.4855 47.6514 48.7236 47.6514ZM51.3313 40.5851C51.2608 39.498 50.509 38.0563 48.5357 38.0563C46.6798 38.0563 45.881 39.4507 45.74 40.5851H51.3313ZM73.4613 47.3678H70.4542V40.1597C70.4542 39.0962 69.9844 38.3399 68.7628 38.3399C67.7056 38.3399 66.8364 39.0489 66.4135 39.6634V47.3678H63.4065V40.1597C63.4065 39.0962 62.9366 38.3399 61.715 38.3399C60.6813 38.3399 59.8121 39.0489 59.3657 39.687V47.3678H56.3822V35.953H59.3657V37.4419C59.8356 36.7565 61.3391 35.6694 63.0776 35.6694C64.7455 35.6694 65.8027 36.4493 66.2256 37.7491C66.8834 36.7092 68.3869 35.6694 70.1254 35.6694C72.2162 35.6694 73.4613 36.7801 73.4613 39.1198V47.3678ZM80.4856 47.6514C78.5122 47.6514 76.6093 46.9897 75.4112 45.8789L76.7033 43.7756C77.5255 44.5555 79.217 45.3354 80.6265 45.3354C81.9186 45.3354 82.5294 44.8154 82.5294 44.1064C82.5294 42.2158 75.7871 43.7519 75.7871 39.2616C75.7871 37.3473 77.455 35.6694 80.4386 35.6694C82.365 35.6694 83.892 36.3311 85.0196 37.2292L83.8215 39.2853C83.1402 38.5526 81.8482 37.9618 80.4621 37.9618C79.3814 37.9618 78.6766 38.4581 78.6766 39.0962C78.6766 40.7978 85.3955 39.3798 85.3955 43.9883C85.3955 46.068 83.6336 47.6514 80.4856 47.6514Z" fill="#CED4DA"/>
</svg>
