<svg version="1" xmlns="http://www.w3.org/2000/svg" width="1088" height="1088" viewBox="0 0 816.000000 816.000000"><path d="M386.8 32.6c-.2.1-4.3.5-9.3.9-16.3 1.2-19 1.4-21.2 1.9-1.9.4-6.1 1.1-13.8 2.1-2.8.4-5.5.9-11.5 2.1-1.4.3-3.8.7-5.5 1-3.5.6-25.9 6.4-36 9.3-8.4 2.4-31.6 10.8-40 14.6-8.1 3.6-16.5 7.4-19.5 9-16.1 8.1-31.1 16.6-39.2 22.2-2.6 1.8-5 3.3-5.3 3.3-.7 0-25.8 18-27 19.4-.5.6-2.8 2.4-5 4s-4.7 3.7-5.6 4.5c-.9.9-4 3.6-7 6.1-11 9.1-35.9 34.8-46.5 47.9-1 1.3-2.4 2.8-3 3.5-2.5 2.7-17.7 23.3-18.7 25.3-.5 1.3-1.3 2.3-1.7 2.3-.4 0-1.3 1.3-2 3-.7 1.6-1.6 3-2 3-.4 0-1.3 1.3-2 3-.7 1.6-1.6 3-2.1 3s-.9.4-.9.9c0 .7-5 9.6-8 14.1-4.8 7.4-25.4 50.6-26.6 56 0 .3-.4 1.4-.8 2.5-1.8 4.5-1.9 5-2 5.5-.1.3-1.4 3.9-2.8 8-4.7 13.3-10.4 33.7-12.3 44-.4 1.9-.8 3.9-.9 4.5-1.6 6.6-3.2 15.7-4.1 23C1 408.9.6 415.9.6 442.5c0 22.3.7 39.4 1.8 42.5.2.8.7 4.4 1 8 .7 7.7 1.1 10.5 4.1 26.5.2 1.1.7 3.6 1 5.5.4 1.9 1.5 6.9 2.6 11s2.1 8.4 2.3 9.5c.7 4.6 10 33.8 13.5 42.8l1.1 2.9 47.5-47.9c26.1-26.3 47.5-48.1 47.5-48.6 0-.4-1-.5-2.2-.3-1.3.3-5.4.8-9.1 1-3.8.3-7.2.8-7.8 1.1-.5.4-.9.2-.9-.3s2.6-3.4 5.8-6.5c3.1-3 10.1-9.8 15.6-15.1 5.4-5.3 14.1-13.5 19.3-18.3 5.3-4.9 11.9-11 14.7-13.7 2.8-2.7 8.5-7.8 12.6-11.5 4.1-3.6 8.7-7.7 10.1-9.1 1.4-1.4 5.7-5.2 9.4-8.5 3.8-3.3 7.6-6.7 8.4-7.5.9-.8 6.4-5.5 12.1-10.4 5.8-5 11.2-9.7 12.1-10.5.8-.9 4.3-3.9 7.7-6.6 3.4-2.8 6.2-5.3 6.2-5.6 0-.4-1.7-.5-3.7-.4-13.6 1.2-17.3 1.3-17.3.5 0-.6.4-1 .9-1s2.6-1.7 4.8-3.8c4.1-3.9 14.1-12.8 20.8-18.4 2.2-1.8 4.9-4.1 6-5 1.1-.9 4.9-4 8.5-6.8 3.6-2.8 7.2-5.6 8-6.3 4.3-3.5 23.8-17.5 25.7-18.5 1.2-.7 2.7-1.8 3.5-2.5.7-.7 3.6-2.6 6.3-4.2 2.8-1.6 5.2-3.2 5.5-3.5.6-.6 1.6-1.2 12.4-7.6 4.4-2.6 11.2-6.3 15-8.2 3.9-1.9 7.8-4.1 8.6-4.8.8-.7 2-1.3 2.5-1.4 1.7-.4 4.6-1.6 13.8-5.9 4.9-2.3 9-4.1 9.3-4.1.2 0 2.3-.9 4.7-1.9 5.7-2.7 11.9-5.2 13.7-5.6.8-.3 4.7-1.6 8.5-3.1 5.7-2.1 13.9-4.8 21-6.8.6-.2 1.7-.6 2.5-.9.8-.4 4.2-1.4 7.5-2.2 5.8-1.6 7.2-1.9 11.5-3 1.1-.3 2.9-.7 4-1 3.6-.9 6.5-1.5 9.5-2 1.7-.3 6.4-1.2 10.5-2 7.1-1.4 13.4-2.4 19-3 15.4-1.9 24.7-2.6 37-3 5.5-.1 10 0 10 .4 0 .3-3.1 3.5-6.8 7.1-3.8 3.6-8.3 8.4-10.1 10.7-3.8 5-11.1 18-11.1 19.9 0 1.4 1.6 1.9 8 2.8 1.9.3 6 1.3 9 2.2 3 1 6 1.9 6.5 2 9.5 2.6 34.2 14.1 41.2 19.3 2.3 1.8 3.3 3.6 4.3 7.9.6 3.2 1.9 7.7 2.8 10.2 1.5 4.5 6.3 10 8.7 10 .6 0 2 .9 3 2s2.4 2 3.1 2c.7 0 1.4.4 1.6.8.8 2.1 20.6 9.6 28.3 10.7 1.6.2 4.1.7 5.5 1 1.4.3 4.1.8 6 1.1 1.9.3 4.6.7 6 1 1.4.2 4.8.6 7.5.9 2.8.3 5.7.8 6.5 1 .8.2 4 .7 7 1 13.6 1.3 17.5 6.9 11.8 16.5-1.1 1.9-2.9 5.9-3.9 8.9-1.1 3-2.7 6.3-3.6 7.3-1.7 1.9-7 3.7-12.6 4.3-1.8.2-5.2.6-7.7.9-10.2 1.2-23.9 2.4-49.5 4-2.7.2-8 .5-11.7.7-3.7.2-6.5.5-6.4.7.2.1 14.9.4 32.7.6 17.8.1 33.1.5 33.9.7 3.3.9 3.9 3.1 1.7 7.3-2.9 5.8-6.6 10.6-8.1 10.6-.8 0-1.9.7-2.6 1.5-.7.9-1.5 1.3-1.7 1.1-.3-.2-2.3.2-4.5 1-4.2 1.4-11 2.1-29.8 2.9-6.3.3-13.7.7-16.5 1-2.7.3-7 .7-9.5.9-2.5.2-5.8.7-7.5 1-1.6.2-5 .8-7.5 1.1-2.5.3-6.7 1.3-9.5 2.1-2.7.8-5.2 1.5-5.5 1.5-.4 0-9.7 2.5-12.5 3.3-.5.2-1.2.4-1.5.4-2.2.1-14.9 5.9-23.5 10.6-2.5 1.4-14.8 9.7-15.5 10.5-.3.3-2.7 2.4-5.5 4.6-10.2 8-25 23-31.5 31.6-1.4 1.8-3.3 4.1-4.2 5.1-1 1-1.8 2.2-1.8 2.6 0 .5-1.1 1.9-2.5 3.2-1.4 1.3-2.5 2.9-2.5 3.7 0 .7-.4 1.3-1 1.3-.5 0-1 .5-1 1.1 0 .6-1.1 2.5-2.4 4.2-5.7 7.5-19.4 36.9-22 47.2-.2.5-1 3.5-1.9 6.5-.9 3-1.9 7.3-2.2 9.5-.4 2.2-.9 4.9-1.1 6-1.5 8.3-1.8 13.3-1.9 30 0 10.4.4 21.9.8 25.5.5 3.6 1 7.8 1.2 9.5 1.1 8.6 6.6 31 8.4 34 .3.5.6 1.2.6 1.5.4 3.4 7.7 19.3 12.4 27 1.1 1.9 2.4 4.2 2.8 5 1 2.1 10 14.7 12.6 17.7 5.8 6.5 20.9 21.4 24.3 23.9 2.2 1.6 4.5 3.4 5.2 4.1.7.7 2.6 2 4.2 3 1.7.9 3 2.1 3 2.5 0 .4.6.8 1.3.8.7 0 2.2.8 3.3 1.8 6.8 5.9 34.6 18 42.7 18.5.9.1 1.7.4 1.7.7 0 .4.6.7 1.3.7 2.2.2 10.2 1.2 10.2 1.3 0 .6 12.9 1.4 22.5 1.4 13.8 0 24.9-1.2 36.5-4 3.3-.8 6.9-1.7 7.9-1.9 2.3-.5 8.6-2.4 10.6-3.2.8-.4 1.8-.7 2.3-.8.4-.2.8-.3 1-.5.1-.1 1-.3 2.1-.5 1-.2 2.3-.8 2.9-1.4.6-.6 1.7-1.1 2.5-1.1 1.9 0 24.3-10.8 26.6-12.8 1-.9 1.9-1.5 2-1.2.4.7 18.6-11.2 28.1-18.4 8-6 18.7-16.4 28-27.1 2.8-3.2 5.7-6.5 6.6-7.4.8-.9 3.1-3.6 4.9-6.1 1.9-2.5 3.9-5 4.5-5.7.5-.7 1.5-1.8 2.1-2.6.7-.8 3.5-4.7 6.4-8.8 2.9-4.1 5.7-7.6 6.2-7.7.4-.2.8-.7.8-1.2s2.4-4.4 5.2-8.7c2.9-4.3 6.3-9.8 7.7-12.3 1.3-2.5 2.7-4.7 3-5 1.5-1.3 18.1-33.9 18.1-35.7 0-.7.5-1.3 1-1.3.6 0 1-.8 1-1.8s.6-2.6 1.3-3.7c.7-1.1 2.6-5.4 4.1-9.5 1.6-4.1 3.4-8.9 4.1-10.5 1.8-4.2 5.6-15.2 6-17.3.1-.9 1-3.5 1.8-5.7 1.4-3.6 3-9.6 2.8-10.3-.1-.1.5-1.8 1.3-3.7.9-2 1.5-3.8 1.5-4-.2-2 1.4-8.6 2.2-9.1.5-.3.7-.9.5-1.2-.2-.4.2-3.7 1-7.2.8-3.6 1.7-7.9 1.9-9.5.3-1.7.7-3.9 1-5.1.2-1.2.7-3.9 1-6 .3-2.1.7-5.3 1-6.9 2.8-18.6 3.8-34.1 3.9-58 0-19.3-.9-38.9-2-40.7-.3-.4.1-.8.8-.8.8 0 .9-.3.3-.8-.6-.4-1.2-2.1-1.3-3.7-.6-5.3-3.1-22.9-3.5-25-.4-2-1.5-7.7-2.3-12.5-.3-1.4-1.1-5.2-1.9-8.5-.8-3.3-1.7-7.1-1.9-8.5-.3-1.4-.5-2.5-.6-2.5-.1 0-.3-.7-.5-1.5s-1.1-4-2-7c-.9-3-1.8-6.4-2-7.5-.2-1.1-1.3-4.7-2.5-8s-2.3-6.7-2.5-7.5c-.2-.9-2.2-6.5-4.6-12.5-2.4-6.1-4.4-11.2-4.4-11.5-.1-.3-1.2-2.8-2.4-5.5-3.1-6.6-6.4-13.9-6.6-14.5 0-.3-1.6-3.4-3.5-7s-3.3-6.8-3.2-7.3c.1-.4-.3-.7-.8-.7-.6 0-1-.4-1-.9 0-2-21.1-37-25.7-42.6-.4-.6-3.5-4.6-6.7-9-6.7-8.9-12.4-16.1-20-25-6.7-7.9-31.7-32.8-38.5-38.5-3-2.5-6.4-5.4-7.5-6.5-1.2-1.1-4.2-3.6-6.6-5.5-2.5-1.9-4.9-3.8-5.5-4.3-.5-.4-4.4-3.3-8.5-6.2-4.1-3-7.9-5.8-8.5-6.2-3.2-2.5-23.5-15.4-28.6-18.2-10.1-5.6-28.3-15-33.9-17.4-1.9-.9-6.6-3-10.4-4.6-3.8-1.7-7.3-3.1-7.7-3.1-.5 0-2.8-.9-5.2-1.9-6.2-2.9-18.7-7.2-18.7-6.5 0 .4-.6.2-1.2-.4-.7-.6-4-1.8-7.3-2.7-3.3-.9-8.5-2.3-11.5-3.2-3-.8-6.2-1.7-7-1.8-.8-.1-2.2-.5-3-.8-1.6-.5-16.2-3.7-19.5-4.2-1.1-.2-3.6-.6-5.5-1s-4.8-.8-6.5-1.1c-1.6-.2-4.1-.6-5.5-.8-4.1-.8-10.3-1.6-17.1-2.2-3.5-.3-8.4-.7-10.9-1-4.5-.5-50.8-1.3-51.2-.8z"/><path d="M512.4 309.8c-3.4.5-5.6 3.6-5.2 7.3.3 2.9.8 3.4 3.8 4.1 6.7 1.4 19.4 2.2 31 1.9l5.5-.1-6-3.2c-20.3-10.5-22.2-11.2-29.1-10z"/></svg>