<svg width="86" height="52" viewBox="0 0 86 52" fill="none" xmlns="http://www.w3.org/2000/svg">
    <path fill-rule="evenodd" clip-rule="evenodd" d="M38.726 29.459c-8.445 0-15.32-5.679-15.32-14.73C23.405 5.68 30.28 0 38.725 0c6.324 0 10.143 3.373 12.095 6.916L47.247 8.79c-1.461.766-2.936.413-4.161-.638-1.137-.975-2.632-1.662-4.36-1.662-4.626 0-7.894 3.587-7.894 8.24 0 4.654 3.268 8.24 7.894 8.24 2.08 0 4.202-.854 5.22-1.708v-2.473h-3.541c-1.679 0-2.825-.978-2.825-2.33v-3.863h10.362c2.132 0 3.304 1.22 3.304 3.025v6.149c0 2.433-1.12 3.4-2.533 4.459-2.69 2.017-5.996 3.23-9.987 3.23zm-17.963-.513H4.513c-2.907 0-4.503-1.664-4.503-4.3V.47h20.753v2.996c0 2.272-1.262 3.408-4.07 3.408H7.31v4.44h11.393v3.394c0 2.449-.633 3.01-2.916 3.01H7.31v4.824h13.453v6.404z" fill="#228BE6"/>
    <path d="M56.601 20.715a15.39 15.39 0 0 1-1.024-5.893C55.777 6.704 62.35.128 70.349.002c8.399-.127 15.223 6.727 15.223 15.175 0 4.249-1.725 8.093-4.5 10.85-2.949 2.428-5.823 2.326-7.573 1.239-1.75-1.088-3.15-2.858-3.15-5.944 0-3.566 2.95-6.019 4.25-6.474.475-.152 1.05-.329 1.474-.38a11.87 11.87 0 0 1 1.7-.126c.475 0 1.125-.127 1.25-.43.025-.101.1-.202.15-.329.025-.076 0-.1-.1-.126-.2-.026-.6-.05-1.3-.05-.325 0-.975 0-1.9.024.975-.05 1.65-.1 2.05-.126.475-.05.8-.05 1.55-.152 0 0 .05 0 .1-.025h.05c.375-.076.275-.405.5-.733.175-.228.15-.532-.3-.582-1.425-.177-2.15-.304-2.7-.683-.075-.05-.2-.127-.375-.253-.15-.126-.2-.43-.25-.708-.025-.076-.025-.127-.1-.177-.325-.253-1.45-.835-2.45-.961.176-.506.476-.936 1.1-1.467-2.749 0-5.074.834-6.823 1.694-1.575.76-3.3 2.074-4.725 3.415.3-.025.575-.05.85-.076-2 1.72-3.274 2.883-5.024 4.603.25-.025.525-.05.825-.076l-3.55 3.591zM74.624 10.27c.35 0 .525.228 1.125.506-.675.025-1 .025-1.475-.101-.05-.279.025-.405.35-.405z" fill="#228BE6"/>
    <path fill-rule="evenodd" clip-rule="evenodd" d="M5.074 47.651c-1.973 0-3.876-.661-5.074-1.772l1.292-2.103c.822.78 2.514 1.56 3.923 1.56 1.292 0 1.903-.52 1.903-1.23 0-1.89-6.742-.354-6.742-4.844 0-1.915 1.668-3.593 4.651-3.593 1.927 0 3.454.662 4.581 1.56L8.41 39.285c-.68-.732-1.973-1.323-3.36-1.323-1.08 0-1.785.496-1.785 1.134 0 1.702 6.72.284 6.72 4.892 0 2.08-1.763 3.663-4.91 3.663zm6.72 4.183l.446-2.694c.258.118.657.19.94.19.775 0 1.291-.213 1.573-.828l.423-.969-4.604-11.58h3.195l2.96 7.94 2.96-7.94h3.218l-5.332 13.282c-.846 2.15-2.35 2.718-4.3 2.765-.352 0-1.104-.07-1.48-.166zm16.538-4.183c-1.973 0-3.876-.661-5.074-1.772l1.292-2.103c.822.78 2.514 1.56 3.923 1.56 1.292 0 1.903-.52 1.903-1.23 0-1.89-6.742-.354-6.742-4.844 0-1.915 1.668-3.593 4.651-3.593 1.927 0 3.453.662 4.581 1.56l-1.198 2.056c-.681-.732-1.973-1.323-3.36-1.323-1.08 0-1.785.496-1.785 1.134 0 1.702 6.719.284 6.719 4.892 0 2.08-1.762 3.663-4.91 3.663zm10.924 0c-2.09 0-3.218-1.087-3.218-3.12v-5.955h-1.88v-2.623h1.88v-3.12h3.007v3.12h2.302v2.623h-2.302v5.152c0 .71.375 1.253 1.033 1.253.447 0 .87-.166 1.034-.331l.634 2.269c-.446.402-1.245.732-2.49.732zm9.468 0c-3.454 0-6.061-2.34-6.061-6.002 0-3.31 2.42-5.98 5.873-5.98 3.383 0 5.685 2.553 5.685 6.287v.662h-8.434c.188 1.441 1.34 2.646 3.266 2.646.963 0 2.302-.425 3.03-1.134l1.316 1.938c-1.128 1.04-2.913 1.583-4.675 1.583zm2.607-7.066c-.07-1.087-.822-2.529-2.795-2.529-1.856 0-2.655 1.395-2.796 2.53h5.591zm22.13 6.783h-3.007V40.16c0-1.064-.47-1.82-1.691-1.82-1.057 0-1.927.709-2.35 1.323v7.705h-3.006V40.16c0-1.064-.47-1.82-1.692-1.82-1.034 0-1.903.709-2.35 1.347v7.68h-2.983V35.954h2.984v1.489c.47-.685 1.973-1.773 3.712-1.773 1.668 0 2.725.78 3.148 2.08.657-1.04 2.16-2.08 3.9-2.08 2.09 0 3.335 1.111 3.335 3.45v8.249zm7.025.283c-1.974 0-3.877-.661-5.075-1.772l1.292-2.103c.822.78 2.514 1.56 3.923 1.56 1.293 0 1.903-.52 1.903-1.23 0-1.89-6.742-.354-6.742-4.844 0-1.915 1.668-3.593 4.652-3.593 1.926 0 3.453.662 4.58 1.56l-1.198 2.056c-.68-.732-1.973-1.323-3.359-1.323-1.08 0-1.785.496-1.785 1.134 0 1.702 6.718.284 6.718 4.892 0 2.08-1.761 3.663-4.91 3.663z" fill="#CED4DA"/>
</svg>
