<svg width="147" height="52" viewBox="0 0 147 52" fill="none" xmlns="http://www.w3.org/2000/svg">
    <path fill-rule="evenodd" clip-rule="evenodd" d="M131.71 29.416c-8.645 0-15.129-6.054-15.129-14.708S123.065 0 131.71 0s15.087 6.054 15.087 14.708-6.442 14.708-15.087 14.708zm0-6.48c-4.704 0-7.713-3.624-7.713-8.228 0-4.647 3.009-8.228 7.713-8.228 4.662 0 7.671 3.581 7.671 8.228 0 4.604-3.009 8.228-7.671 8.228zm-31.556 6.523c-8.445 0-15.32-5.679-15.32-14.73C84.833 5.68 91.708 0 100.153 0c6.323 0 10.143 3.373 12.095 6.916l-3.574 1.873c-1.461.766-2.936.413-4.161-.638-1.137-.975-2.632-1.662-4.36-1.662-4.626 0-7.894 3.587-7.894 8.24 0 4.654 3.268 8.24 7.894 8.24 2.08 0 4.201-.854 5.22-1.708v-2.473h-3.541c-1.679 0-2.825-.978-2.825-2.33v-3.863h10.362c2.132 0 3.304 1.22 3.304 3.025v6.149c0 2.433-1.12 3.4-2.533 4.459-2.69 2.017-5.996 3.23-9.987 3.23zm-17.963-.513H65.94c-2.907 0-4.503-1.664-4.503-4.3V.47H82.19v2.996c0 2.272-1.262 3.408-4.07 3.408h-9.383v4.44H80.13v3.394c0 2.449-.633 3.01-2.916 3.01h-8.478v4.824H82.19v6.404z" fill="#228BE6"/>
    <path fill-rule="evenodd" clip-rule="evenodd" d="M66.502 47.652c-1.973 0-3.876-.662-5.074-1.773l1.292-2.103c.822.78 2.514 1.56 3.923 1.56 1.292 0 1.903-.52 1.903-1.23 0-1.89-6.742-.354-6.742-4.844 0-1.915 1.668-3.593 4.651-3.593 1.927 0 3.454.662 4.581 1.56l-1.198 2.056c-.681-.732-1.973-1.323-3.36-1.323-1.08 0-1.785.496-1.785 1.134 0 1.702 6.72.284 6.72 4.892 0 2.08-1.763 3.664-4.91 3.664zm6.72 4.183l.446-2.694c.258.118.657.189.94.189.775 0 1.291-.213 1.573-.828l.423-.969L72 35.953h3.195l2.96 7.94 2.96-7.94h3.218L79 49.235c-.845 2.15-2.349 2.718-4.299 2.765-.352 0-1.104-.07-1.48-.165zm16.538-4.183c-1.973 0-3.876-.662-5.074-1.773l1.292-2.103c.822.78 2.513 1.56 3.923 1.56 1.292 0 1.903-.52 1.903-1.23 0-1.89-6.743-.354-6.743-4.844 0-1.915 1.668-3.593 4.652-3.593 1.926 0 3.453.662 4.581 1.56l-1.198 2.056c-.681-.732-1.973-1.323-3.36-1.323-1.08 0-1.785.496-1.785 1.134 0 1.702 6.719.284 6.719 4.892 0 2.08-1.762 3.664-4.91 3.664zm10.924 0c-2.09 0-3.218-1.088-3.218-3.12v-5.956h-1.88v-2.623h1.88v-3.12h3.007v3.12h2.302v2.623h-2.302v5.152c0 .71.376 1.253 1.033 1.253.447 0 .87-.165 1.034-.33l.634 2.268c-.446.402-1.245.733-2.49.733zm9.468 0c-3.454 0-6.062-2.34-6.062-6.003 0-3.309 2.42-5.98 5.874-5.98 3.383 0 5.685 2.553 5.685 6.287v.662h-8.434c.188 1.441 1.339 2.647 3.265 2.647.964 0 2.303-.426 3.031-1.135l1.316 1.938c-1.128 1.04-2.913 1.584-4.675 1.584zm2.607-7.067c-.07-1.087-.822-2.529-2.795-2.529-1.856 0-2.655 1.395-2.796 2.53h5.591zm22.13 6.783h-3.007V40.16c0-1.064-.47-1.82-1.691-1.82-1.057 0-1.927.709-2.349 1.323v7.705h-3.008V40.16c0-1.064-.469-1.82-1.691-1.82-1.034 0-1.903.709-2.349 1.347v7.681h-2.984V35.953h2.984v1.489c.47-.685 1.973-1.773 3.712-1.773 1.668 0 2.725.78 3.148 2.08.657-1.04 2.161-2.08 3.899-2.08 2.091 0 3.336 1.111 3.336 3.45v8.249zm7.025.284c-1.974 0-3.877-.662-5.075-1.773l1.292-2.103c.822.78 2.514 1.56 3.924 1.56 1.292 0 1.902-.52 1.902-1.23 0-1.89-6.742-.354-6.742-4.844 0-1.915 1.668-3.593 4.652-3.593 1.926 0 3.453.662 4.581 1.56l-1.198 2.056c-.682-.732-1.974-1.323-3.36-1.323-1.081 0-1.785.496-1.785 1.134 0 1.702 6.719.284 6.719 4.892 0 2.08-1.762 3.664-4.91 3.664z" fill="#CED4DA"/>
    <path d="M1.745 35.45a25.841 25.841 0 0 1-1.737-9.94C.347 11.818 11.492.727 25.052.514 39.292.3 50.86 11.86 50.86 26.108a25.66 25.66 0 0 1-7.628 18.3c-5 4.096-9.874 3.925-12.84 2.091-2.966-1.834-5.34-4.82-5.34-10.025 0-6.015 5-10.153 7.205-10.92.805-.256 1.78-.555 2.5-.64 1.271-.171 2.076-.214 2.881-.214.806 0 1.907-.213 2.12-.725.042-.17.169-.341.253-.554.043-.128 0-.171-.169-.214-.34-.042-1.017-.085-2.204-.085-.55 0-1.652 0-3.22.043 1.652-.086 2.797-.171 3.475-.214.805-.085 1.356-.085 2.627-.256 0 0 .085 0 .17-.042h.084c.636-.128.466-.683.848-1.237.296-.384.254-.896-.509-.982-2.415-.298-3.644-.511-4.577-1.151-.127-.086-.339-.214-.635-.427-.254-.213-.34-.725-.424-1.194-.042-.128-.042-.214-.17-.299-.55-.427-2.457-1.408-4.152-1.62.296-.854.805-1.58 1.864-2.475-4.661 0-8.602 1.408-11.569 2.858-2.67 1.28-5.593 3.498-8.009 5.759.509-.043.975-.085 1.44-.128-3.39 2.9-5.55 4.863-8.517 7.764.424-.043.89-.085 1.399-.128L1.745 35.45zm30.554-17.618c.593 0 .89.384 1.907.854-1.144.042-1.695.042-2.5-.171-.085-.47.042-.683.593-.683z" fill="#CED4DA"/>
</svg>
